<?xml version="1.0" encoding="iso-8859-1"?>
<!-- Generator: Adobe Illustrator 19.0.0, SVG Export Plug-In . SVG Version: 6.00 Build 0)  -->
<svg version="1.1" id="Layer_1" xmlns="http://www.w3.org/2000/svg" xmlns:xlink="http://www.w3.org/1999/xlink" x="0px" y="0px"
	 viewBox="0 0 512 512" style="enable-background:new 0 0 512 512;" xml:space="preserve">
<circle style="fill:#FF7F4F;" cx="256" cy="256" r="256"/>
<path style="fill:#DD562C;" d="M174.459,437.146l74.762,74.762c2.253,0.059,4.511,0.09,6.778,0.09c141.384,0,256-114.616,256-256
	c0-2.06-0.029-4.115-0.078-6.163L339.558,77.472L174.459,437.146z"/>
<path style="fill:#366695;" d="M183.524,440.889h144.951c7.101,0,12.857-5.756,12.857-12.857V83.968
	c0-7.101-5.756-12.857-12.857-12.857H183.524c-7.101,0-12.859,5.756-12.859,12.857V428.03
	C170.667,435.133,176.423,440.889,183.524,440.889z"/>
<path style="fill:#273B7A;" d="M328.475,71.111h-71.901v369.778h71.901c7.101,0,12.857-5.756,12.857-12.857V83.968
	C341.333,76.867,335.577,71.111,328.475,71.111z"/>
<rect x="263.327" y="91.367" style="fill:#38C6D9;" width="56.889" height="56.889"/>
<rect x="191.785" y="91.367" style="fill:#71E2EF;" width="56.889" height="56.889"/>
<rect x="263.327" y="163.771" style="fill:#38C6D9;" width="56.889" height="56.889"/>
<rect x="191.785" y="163.771" style="fill:#71E2EF;" width="56.889" height="56.889"/>
<circle style="fill:#38C6D9;" cx="302.545" cy="270.222" r="14.222"/>
<g>
</g>
<g>
</g>
<g>
</g>
<g>
</g>
<g>
</g>
<g>
</g>
<g>
</g>
<g>
</g>
<g>
</g>
<g>
</g>
<g>
</g>
<g>
</g>
<g>
</g>
<g>
</g>
<g>
</g>
</svg>
